<svg width="32" height="14" viewBox="0 0 350 158" fill="none" xmlns="http://www.w3.org/2000/svg">
  <g>
    <path d="M241.087 148.12C242.256 145.028 242.668 141.701 242.289 138.417C241.91 135.133 240.751 131.987 238.909 129.242C237.017 126.974 234.697 125.101 232.081 123.731C229.464 122.36 226.603 121.519 223.662 121.255L97.324 119.803C96.598 119.803 95.872 119.077 95.146 119.077C94.977 118.95 94.839 118.786 94.745 118.597C94.65 118.408 94.601 118.199 94.601 117.988C94.601 117.777 94.65 117.568 94.745 117.379C94.839 117.19 94.977 117.026 95.146 116.899C95.872 115.447 96.598 114.721 98.05 114.721L225.114 113.268C233.18 112.373 240.863 109.345 247.371 104.496C253.88 99.647 258.979 93.151 262.144 85.677L269.405 66.799C269.405 66.073 270.131 65.347 269.405 64.621C265.457 47.039 255.878 31.225 242.123 19.584C228.367 7.943 211.188 1.11 193.194 0.124C175.201 -0.862 157.378 3.953 142.433 14.021C127.488 24.09 116.238 38.762 110.393 55.808C102.805 50.389 93.55 47.818 84.254 48.547C75.724 49.499 67.77 53.323 61.7 59.393C55.631 65.462 51.806 73.416 50.855 81.947C50.371 86.314 50.617 90.73 51.581 95.016C37.778 95.398 24.668 101.15 15.0405 111.049C5.413 120.947 0.0274 134.212 0.0293 148.02C-0.0898 150.703 0.1544 153.39 0.7554 156.007C0.7887 156.574 1.029 157.109 1.4305 157.51C1.832 157.912 2.3669 158.152 2.9338 158.185H236.005C237.457 158.185 238.909 157.459 238.909 156.007Z" fill="#f48120"/>
    <path d="M281.02 66.799H277.39C276.664 66.799 275.938 67.525 275.212 68.252L270.129 85.677C268.961 88.77 268.549 92.097 268.928 95.381C269.307 98.665 270.466 101.81 272.307 104.555C274.199 106.824 276.52 108.697 279.136 110.067C281.752 111.437 284.613 112.279 287.555 112.542L314.42 113.994C315.146 113.994 315.872 114.721 316.598 114.721C316.767 114.847 316.905 115.012 316.999 115.201C317.094 115.39 317.143 115.598 317.143 115.81C317.143 116.021 317.094 116.229 316.999 116.419C316.905 116.608 316.767 116.772 316.598 116.899C315.872 118.351 315.146 119.077 313.694 119.077L286.103 120.529C278.036 121.424 270.354 124.452 263.845 129.302C257.337 134.151 252.238 140.647 249.073 148.12L247.621 154.655C246.895 155.381 248.347 156.833 249.073 156.833H344.915C345.211 156.875 345.513 156.848 345.796 156.754C346.08 156.659 346.338 156.5 346.549 156.288C346.76 156.076 346.92 155.819 347.014 155.535C347.109 155.251 347.136 154.95 347.094 154.654C348.822 148.502 349.797 142.163 349.998 135.776C349.883 117.517 342.579 100.039 329.668 87.129C316.757 74.218 299.279 66.913 281.02 66.799Z" fill="#faad3f"/>
  </g>
</svg>
