<?xml version="1.0" encoding="utf-8"?>
<svg xmlns="http://www.w3.org/2000/svg" aria-label="Global DNS queries icon" height="64" id="svg14" role="img" version="1.1" viewBox="0 0 64 64" width="64">
  
  <defs id="defs2">
    <clipPath id="globeClip">
      <circle cx="32" cy="28" id="circle1" r="16"/>
    </clipPath>
    
    <radialGradient cx="32" cy="24" gradientUnits="userSpaceOnUse" id="ocean" r="22">
      <stop id="stop1" offset="0" stop-color="#93C5FD"/>
      <stop id="stop2" offset="1" stop-color="#2563EB"/>
    </radialGradient>
  </defs>
  
  
  
  
  
  <g id="g14">
    <circle cx="32" cy="28" fill="url(#ocean)" id="circle2" r="16" stroke="#0B2A6F" stroke-width="2.5"/>
    <g clip-path="url(#globeClip)" fill="none" id="g5" stroke="#DBEAFE" stroke-linecap="round" stroke-opacity="0.9" stroke-width="1.6">
      
      <path d="M16 28H48" id="path2"/>
      <path d="M18 22C23 25 27.5 26.5 32 26.5C36.5 26.5 41 25 46 22" id="path3"/>
      <path d="M18 34C23 31 27.5 29.5 32 29.5C36.5 29.5 41 31 46 34" id="path4"/>
      
      <ellipse cx="32" cy="28" id="ellipse4" rx="6.5" ry="16"/>
      <ellipse cx="32" cy="28" id="ellipse5" rx="11" ry="16"/>
    </g>
    <g fill="#F59E0B" id="g8" stroke="#7C2D12" stroke-width="1.8">
      <circle cx="10" cy="18" id="circle5" r="2.4"/>
      <circle cx="54" cy="14" id="circle6" r="2.4"/>
      <circle cx="56" cy="44" id="circle7" r="2.4"/>
      <circle cx="12" cy="48" id="circle8" r="2.4"/>
    </g>
    <g fill="none" id="g11" stroke="#06B6D4" stroke-linecap="round" stroke-width="2.4">
      
      <path d="M12.5 18.5 Q20 12 23.5 20.5" id="path8"/>
      
      <path d="M51.5 14.5 Q44 10 40.5 19.5" id="path9"/>
      
      <path d="M54.5 44.5 Q46 46 43.5 37.5" id="path10"/>
      
      <path d="M14.5 48.5 Q20 52 23.5 39.5" id="path11"/>
    </g>
    <rect fill="#111827" height="10" id="rect11" rx="3.2" stroke="#334155" stroke-width="2" width="24" x="20" y="50"/>
    <path d="M24 55H40" id="path12" stroke="#E5E7EB" stroke-linecap="round" stroke-width="2.2"/>
  </g>
  
</svg>